<?xml version="1.0" encoding="utf-8"?>
<!-- Generator: Adobe Illustrator 26.0.1, SVG Export Plug-In . SVG Version: 6.00 Build 0)  -->
<svg version="1.1" id="Capa_1" xmlns="http://www.w3.org/2000/svg" xmlns:xlink="http://www.w3.org/1999/xlink" x="0px" y="0px"
	 viewBox="0 0 50 26.2" style="enable-background:new 0 0 50 26.2;" xml:space="preserve">
<style type="text/css">
	.st0{fill:#1C2E35;}
	
		.st1{clip-path:url(#XMLID_00000024711537655988259950000002889728199984263307_);fill:url(#XMLID_00000134946120083888718700000018339074222597491877_);}
	
		.st2{clip-path:url(#XMLID_00000071524954486510670480000013969129799750449087_);fill:url(#XMLID_00000008839596316303622620000005585309554475952811_);}
	
		.st3{clip-path:url(#XMLID_00000068664788520485181920000004400178690216166283_);fill:url(#XMLID_00000114775282652867712320000008913988441215543427_);}
</style>
<g id="XMLID_802_">
	<g id="XMLID_813_">
		<path id="XMLID_831_" class="st0" d="M3.9,21.1v0.8h1v0.6c-0.2,0.2-0.6,0.3-0.9,0.3c-0.2,0-0.4,0-0.5-0.1
			c-0.2-0.1-0.3-0.2-0.4-0.3c-0.1-0.1-0.2-0.3-0.3-0.4c-0.1-0.2-0.1-0.4-0.1-0.6v0c0-0.2,0-0.4,0.1-0.5c0.1-0.2,0.2-0.3,0.3-0.4
			c0.1-0.1,0.3-0.2,0.4-0.3C3.5,20.1,3.7,20,3.9,20c0.1,0,0.2,0,0.3,0c0.1,0,0.2,0.1,0.3,0.1c0.1,0,0.2,0.1,0.3,0.1
			c0.1,0.1,0.2,0.1,0.3,0.2l0.6-0.7c-0.1-0.1-0.2-0.2-0.4-0.3c-0.1-0.1-0.3-0.1-0.4-0.2c-0.1-0.1-0.3-0.1-0.5-0.1
			c-0.2,0-0.3,0-0.5,0c-0.3,0-0.6,0.1-0.9,0.2c-0.3,0.1-0.5,0.3-0.7,0.5C2,20,1.9,20.3,1.8,20.5c-0.1,0.3-0.2,0.6-0.2,0.9v0
			c0,0.3,0.1,0.6,0.2,0.9c0.1,0.3,0.3,0.5,0.5,0.7c0.2,0.2,0.4,0.4,0.7,0.5c0.3,0.1,0.6,0.2,0.9,0.2c0.4,0,0.8-0.1,1.1-0.2
			c0.3-0.1,0.6-0.3,0.8-0.5v-1.9H3.9z"/>
		<path id="XMLID_828_" class="st0" d="M11.6,20.5c-0.1-0.3-0.3-0.5-0.5-0.7c-0.2-0.2-0.5-0.4-0.7-0.5c-0.3-0.1-0.6-0.2-0.9-0.2
			c-0.3,0-0.7,0.1-0.9,0.2c-0.3,0.1-0.5,0.3-0.7,0.5c-0.2,0.2-0.4,0.5-0.5,0.7C7.1,20.8,7,21.1,7,21.4v0c0,0.3,0.1,0.6,0.2,0.9
			c0.1,0.3,0.3,0.5,0.5,0.7c0.2,0.2,0.5,0.4,0.7,0.5c0.3,0.1,0.6,0.2,0.9,0.2s0.7-0.1,0.9-0.2c0.3-0.1,0.5-0.3,0.7-0.5
			c0.2-0.2,0.4-0.5,0.5-0.7s0.2-0.6,0.2-0.9v0C11.7,21.1,11.7,20.8,11.6,20.5 M10.7,21.4c0,0.2,0,0.4-0.1,0.5
			c-0.1,0.2-0.2,0.3-0.3,0.4c-0.1,0.1-0.3,0.2-0.4,0.3c-0.2,0.1-0.3,0.1-0.5,0.1c-0.2,0-0.4,0-0.5-0.1c-0.2-0.1-0.3-0.2-0.4-0.3
			c-0.1-0.1-0.2-0.3-0.3-0.4c-0.1-0.2-0.1-0.3-0.1-0.5v0c0-0.2,0-0.4,0.1-0.5c0.1-0.2,0.2-0.3,0.3-0.4c0.1-0.1,0.3-0.2,0.4-0.3
			C9,20.1,9.2,20,9.4,20c0.2,0,0.4,0,0.5,0.1c0.2,0.1,0.3,0.2,0.4,0.3c0.1,0.1,0.2,0.3,0.3,0.4C10.7,21.1,10.7,21.2,10.7,21.4
			L10.7,21.4z"/>
		<polygon id="XMLID_827_" class="st0" points="14.1,22.8 14.1,19.2 13.1,19.2 13.1,23.6 16.3,23.6 16.3,22.8 		"/>
		<path id="XMLID_824_" class="st0" d="M21.4,20.6c-0.1-0.3-0.3-0.5-0.5-0.7c-0.2-0.2-0.5-0.4-0.7-0.5c-0.3-0.1-0.6-0.2-1-0.2h-1.7
			v4.4h1.7c0.3,0,0.7-0.1,1-0.2c0.3-0.1,0.5-0.3,0.7-0.5c0.2-0.2,0.4-0.4,0.5-0.7c0.1-0.3,0.2-0.6,0.2-0.9v0
			C21.6,21.1,21.5,20.8,21.4,20.6 M20.6,21.4c0,0.2,0,0.4-0.1,0.5c-0.1,0.2-0.2,0.3-0.3,0.4c-0.1,0.1-0.3,0.2-0.4,0.3
			c-0.2,0.1-0.3,0.1-0.5,0.1h-0.8v-2.7h0.8c0.2,0,0.4,0,0.5,0.1c0.2,0.1,0.3,0.2,0.4,0.3c0.1,0.1,0.2,0.3,0.3,0.4
			C20.5,21.1,20.6,21.2,20.6,21.4L20.6,21.4z"/>
		<polygon id="XMLID_823_" class="st0" points="23.9,22.8 23.9,21.9 26,21.9 26,21 23.9,21 23.9,20.1 26.3,20.1 26.3,19.2 23,19.2 
			23,23.6 26.3,23.6 26.3,22.8 		"/>
		<polygon id="XMLID_822_" class="st0" points="30.7,19.2 30.7,21.9 28.6,19.2 27.7,19.2 27.7,23.6 28.7,23.6 28.7,20.8 30.8,23.6 
			31.6,23.6 31.6,19.2 		"/>
		<path id="XMLID_819_" class="st0" d="M37.4,20.6c-0.1-0.3-0.3-0.5-0.4-0.7c-0.2-0.2-0.4-0.4-0.7-0.5c-0.3-0.1-0.6-0.2-0.9-0.2
			c-0.3,0-0.6,0.1-0.9,0.2c-0.3,0.1-0.5,0.3-0.7,0.5c-0.2,0.2-0.3,0.5-0.5,0.7c-0.1,0.3-0.2,0.6-0.2,0.9v0c0,0.3,0.1,0.6,0.2,0.9
			c0.1,0.3,0.3,0.5,0.4,0.7c0.2,0.2,0.4,0.4,0.7,0.5c0.3,0.1,0.6,0.2,0.9,0.2c0.3,0,0.6-0.1,0.9-0.2c0.3-0.1,0.5-0.3,0.7-0.5
			c0.2-0.2,0.3-0.5,0.5-0.7c0.1-0.3,0.2-0.6,0.2-0.9c0,0,0,0,0,0C37.6,21.1,37.5,20.8,37.4,20.6 M37.2,21.4c0,0.3,0,0.5-0.1,0.8
			c-0.1,0.2-0.2,0.4-0.4,0.6c-0.2,0.2-0.4,0.3-0.6,0.4c-0.2,0.1-0.5,0.2-0.8,0.2c-0.3,0-0.5-0.1-0.8-0.2c-0.2-0.1-0.4-0.2-0.6-0.4
			c-0.2-0.2-0.3-0.4-0.4-0.6c-0.1-0.2-0.1-0.5-0.1-0.8v0c0-0.3,0-0.5,0.1-0.8c0.1-0.2,0.2-0.5,0.4-0.6c0.2-0.2,0.4-0.3,0.6-0.4
			c0.2-0.1,0.5-0.2,0.8-0.2c0.3,0,0.5,0.1,0.8,0.2c0.2,0.1,0.4,0.2,0.6,0.4c0.2,0.2,0.3,0.4,0.4,0.6C37.2,20.9,37.2,21.2,37.2,21.4
			L37.2,21.4z"/>
		<path id="XMLID_815_" class="st0" d="M41.2,19.2h-0.3l-2.1,4.5h0.3l0.6-1.2h2.6l0.6,1.2h0.4L41.2,19.2z M39.9,22.1l1.2-2.6
			l1.2,2.6H39.9z"/>
		<polygon id="XMLID_814_" class="st0" points="46.4,21.2 48.3,19.2 47.8,19.2 45,22.1 45,19.2 44.7,19.2 44.7,23.6 45,23.6 
			45,22.5 46.1,21.4 47.9,23.6 48.4,23.6 		"/>
	</g>
	<g id="XMLID_810_">
		<defs>
			<path id="XMLID_811_" d="M23.9,3.9c-3.7,0.2-5.4,3.2-5.9,4.4c0,0,0,0.1,0.1,0c0.6-1.1,2.6-3.7,6.6-2.8c3.8,0.9,4.5,4.8,3.6,7.1
				c-0.1,0.3-0.4,0.7-0.4,0.8c0.3,0.1,0.8-0.5,1.1-1C32,8,28,3.9,24.1,3.9C24,3.9,24,3.9,23.9,3.9"/>
		</defs>
		<clipPath id="XMLID_00000175314899697963873210000006126520199812724159_">
			<use xlink:href="#XMLID_811_"  style="overflow:visible;"/>
		</clipPath>
		
			<linearGradient id="XMLID_00000102530000855007913930000015781220067525849251_" gradientUnits="userSpaceOnUse" x1="3888.3953" y1="664.876" x2="3888.4646" y2="664.876" gradientTransform="matrix(85.6811 85.6811 85.6811 -85.6811 -390108.4062 -276190.0625)">
			<stop  offset="0" style="stop-color:#D5EAF5"/>
			<stop  offset="5.069852e-03" style="stop-color:#D2E7F2"/>
			<stop  offset="5.713004e-02" style="stop-color:#B0CBDD"/>
			<stop  offset="0.1144" style="stop-color:#91B4CA"/>
			<stop  offset="0.179" style="stop-color:#74A1BB"/>
			<stop  offset="0.2521" style="stop-color:#5B93AF"/>
			<stop  offset="0.3373" style="stop-color:#4788A6"/>
			<stop  offset="0.4426" style="stop-color:#3781A0"/>
			<stop  offset="0.5904" style="stop-color:#2C7D9D"/>
			<stop  offset="1" style="stop-color:#297C9C"/>
		</linearGradient>
		
			<polygon id="XMLID_812_" style="clip-path:url(#XMLID_00000175314899697963873210000006126520199812724159_);fill:url(#XMLID_00000102530000855007913930000015781220067525849251_);" points="
			25,-3.1 36.8,8.7 25,20.5 13.2,8.7 		"/>
	</g>
	<g id="XMLID_806_">
		<defs>
			<path id="XMLID_807_" d="M30.4,6.5c0.6,1.1,1.8,4.2-1.1,7.1c-2.7,2.8-6.5,1.4-7.9-0.6c-0.2-0.2-0.4-0.7-0.5-0.8
				c-0.2,0.2,0,1,0.2,1.5c2.6,5.1,8.3,3.7,10,0.1C32.7,10.5,31.2,7.6,30.4,6.5C30.4,6.5,30.4,6.5,30.4,6.5
				C30.4,6.5,30.4,6.5,30.4,6.5"/>
		</defs>
		<clipPath id="XMLID_00000096027858002584460320000010403836683306087832_">
			<use xlink:href="#XMLID_807_"  style="overflow:visible;"/>
		</clipPath>
		
			<linearGradient id="XMLID_00000116197150297474492430000000760662843139695806_" gradientUnits="userSpaceOnUse" x1="3935.6064" y1="681.8971" x2="3935.676" y2="681.8971" gradientTransform="matrix(-184.0056 67.8423 67.8423 184.0056 677945.9375 -392463.625)">
			<stop  offset="0" style="stop-color:#D5EAF5"/>
			<stop  offset="8.938750e-03" style="stop-color:#D5EAF5"/>
			<stop  offset="6.311172e-02" style="stop-color:#BFD7E6"/>
			<stop  offset="0.1795" style="stop-color:#90B4CA"/>
			<stop  offset="0.2903" style="stop-color:#689AB6"/>
			<stop  offset="0.3926" style="stop-color:#4989A7"/>
			<stop  offset="0.4834" style="stop-color:#327F9F"/>
			<stop  offset="0.5533" style="stop-color:#297C9C"/>
			<stop  offset="1" style="stop-color:#297C9C"/>
		</linearGradient>
		
			<polygon id="XMLID_808_" style="clip-path:url(#XMLID_00000096027858002584460320000010403836683306087832_);fill:url(#XMLID_00000116197150297474492430000000760662843139695806_);" points="
			36.7,17.3 22.2,22.7 16.7,8 31.3,2.6 		"/>
	</g>
	<g id="XMLID_803_">
		<defs>
			<path id="XMLID_804_" d="M19.2,15.2c2.1,3,5.5,2.9,6.8,2.7c0,0,0-0.1,0-0.1c-1.2,0-4.5-0.3-5.8-4.2c-1.3-3.7,1.7-6.4,4.1-6.8
				c0.3,0,0.8,0,0.9-0.1c-0.1-0.3-0.9-0.4-1.4-0.5c-0.1,0-0.2,0-0.2,0C18.2,6.4,17,12,19.2,15.2"/>
		</defs>
		<clipPath id="XMLID_00000059297179536206400590000007141476702949519750_">
			<use xlink:href="#XMLID_804_"  style="overflow:visible;"/>
		</clipPath>
		
			<linearGradient id="XMLID_00000169538789389517530430000006883317511245111485_" gradientUnits="userSpaceOnUse" x1="3920.9453" y1="708.0892" x2="3921.0149" y2="708.0892" gradientTransform="matrix(-75.6146 -219.0837 -219.0837 75.6146 451634.6875 805490.5625)">
			<stop  offset="0" style="stop-color:#D5EAF5"/>
			<stop  offset="4.102400e-07" style="stop-color:#D5EAF5"/>
			<stop  offset="2.756827e-03" style="stop-color:#D3E8F3"/>
			<stop  offset="4.260144e-02" style="stop-color:#B1CCDD"/>
			<stop  offset="8.611787e-02" style="stop-color:#92B5CB"/>
			<stop  offset="0.1354" style="stop-color:#75A2BC"/>
			<stop  offset="0.1908" style="stop-color:#5C93B0"/>
			<stop  offset="0.2554" style="stop-color:#4788A7"/>
			<stop  offset="0.3349" style="stop-color:#3781A0"/>
			<stop  offset="0.4455" style="stop-color:#2D7D9D"/>
			<stop  offset="0.7431" style="stop-color:#297C9C"/>
			<stop  offset="1" style="stop-color:#297C9C"/>
		</linearGradient>
		
			<polygon id="XMLID_805_" style="clip-path:url(#XMLID_00000059297179536206400590000007141476702949519750_);fill:url(#XMLID_00000169538789389517530430000006883317511245111485_);" points="
			18,21 13.3,7.6 25.1,3.6 29.7,17 		"/>
	</g>
</g>
</svg>
